<svg xmlns="http://www.w3.org/2000/svg" height="307.9" width="215.56"> <g transform="translate(-77.253517,-48.307131)"><path fill-rule="evenodd" fill="#fc9b26" d="m179.37,48.613c-20.512,2.497-36.396,17.094-41.316,37.969-0.641,2.72-0.71,7.466-0.924,63.859-0.214,55.968-0.287,61.08-0.899,62.879-1.022,3-2.127,4.554-6.668,9.377-31.443,33.395-30.674,81.119,1.809,112.13,43.036,41.089,114.82,19.997,129.55-38.061,6.837-26.961-0.408-51.969-21.249-73.352-4.748-4.872-6.047-6.454-7.072-8.619l-1.256-2.652-0.225-60.137c-0.169-45.189-0.346-60.853-0.711-63.015-4.252-25.156-27.165-43.286-51.035-40.38m12.523,22.067c8.54,2.933,14.924,9.723,17.416,18.526l0.866,3.056,0.201,64.839c0.191,61.677,0.236,64.934,0.921,66.797,1.161,3.16,2.63,4.804,8.487,9.501,30.138,24.174,30.168,66.099,0.064,89.961-19.372,15.355-48.688,15.787-68.459,1.009-31.162-23.291-31.739-67.431-1.203-92.159,3.828-3.101,5.678-5.367,6.614-8.102,0.359-1.051,0.525-17.082,0.688-66.419l0.215-65.035,0.848-2.998c3.073-10.864,9.973-17.204,21.859-20.086,2.032-0.492,8.691,0.152,11.483,1.11m-106.52,27.241c-4.868,0.504-7.006,2.19-7.849,6.188-0.994,4.715,0.622,9.133,3.945,10.783,2.063,1.025,31.962,1.592,35.623,0.676,7.464-1.868,8.202-14.739,0.986-17.189-1.8-0.611-27.724-0.974-32.705-0.458m94.032-0.003c-3.186,0.333-5.678,1.395-6.686,2.85-1.79,2.587-1.713-0.165-1.923,68.281l-0.199,64.642-0.93,1.89c-1.18,2.397-2.788,3.951-7.254,7.007-13.356,9.142-20.241,22.468-19.288,37.333,2.322,36.225,45.549,52.189,70.526,26.045,17.87-18.704,14.693-47.189-7.086-63.529-4.059-3.046-5.367-4.44-6.549-6.983-0.819-1.76-0.82-1.843-1.015-66.405-0.217-71.611-0.006-66.103-2.65-68.863-1.929-2.014-9.577-3.038-16.946-2.268m73.828,0.031c-5.449,0.575-8.006,3.293-8.001,8.502,0.005,4.743,1.946,7.839,5.597,8.923,3.031,0.9,33.288,0.866,36.341-0.04,6.316-1.876,7.737-12.758,2.097-16.063-2.69-1.576-25.645-2.418-36.034-1.322"/></g></svg>
