<svg xmlns="http://www.w3.org/2000/svg" display="block" height="286.3" width="263.01"> <g fill-rule="evenodd" fill="#fc9b26" transform="translate(-68.16993,-60.864074)"><path d="m192.26,61.543c-16.925,3.065-30.953,16.11-35.156,32.691-1.621,6.396-1.692,9.032-1.695,63.592-0.003,61.882,0.39,57.334-5.494,63.623-12.181,13.02-17.146,21.885-20.654,36.876-9.214,39.382,16.218,79.255,55.69,87.313,51.737,10.562,96.748-35.465,85.167-87.089-3.275-14.6-8.337-23.896-19.69-36.16-3.581-3.868-4.873-5.815-5.867-8.842-0.394-1.203-0.541-12.833-0.73-57.761-0.21-49.67-0.31-56.575-0.84-58.948-5.38-23.972-27.66-39.476-50.73-35.299m15.395,20.21c8.272,2.931,13.822,9.103,16.328,18.153l0.833,3.01,0.199,60.207c0.191,57.532,0.231,60.274,0.895,61.712,1.119,2.422,2.267,3.706,6.744,7.546,42.596,36.535,10.788,105.32-43.552,94.179-43.217-8.859-57.177-64.997-23.208-93.323,5.985-4.99,6.807-5.957,8.092-9.52,0.287-0.796,0.475-19.277,0.625-61.346,0.241-67.577-0.012-61.974,3.094-68.298,5.275-10.736,18.762-16.284,29.95-12.32m-132.7,153.46c-8.094,1.39-9.328,13.5-1.652,16.221,2.437,0.863,38.857,0.698,41.151-0.187,6.824-2.633,9.502-13.637,3.819-15.691-1.714-0.62-39.945-0.922-43.318-0.343m207.52,0.111c-6.894,1.518-5.302,12.268,2.34,15.803,2.493,1.153,38.552,1.254,41.502,0.116,6.652-2.567,6.409-13.519-0.348-15.735-2.103-0.69-40.461-0.851-43.494-0.184m-89.091,0.42c-31.369,6.253-43.16,43.88-20.544,65.557,19.072,18.281,49.777,13.008,61.579-10.575,5.025-10.042,5.082-23.632,0.14-33.453-7.812-15.525-25.335-24.687-41.175-21.529"/></g></svg>
