<svg xmlns="http://www.w3.org/2000/svg" height="307.9" width="156.93"><g transform="translate(-106.4865,-48.307131)"><path fill-rule="evenodd" fill="#fc9b26" d="m179.37,48.613c-20.512,2.497-36.396,17.094-41.316,37.969-0.641,2.72-0.71,7.466-0.924,63.859-0.214,55.968-0.287,61.08-0.899,62.879-1.022,3-2.127,4.554-6.668,9.377-31.443,33.395-30.674,81.119,1.809,112.13,43.036,41.089,114.82,19.997,129.55-38.061,6.837-26.961-0.408-51.969-21.249-73.352-4.748-4.872-6.047-6.454-7.072-8.619l-1.256-2.652-0.225-60.137c-0.169-45.189-0.346-60.853-0.711-63.015-4.252-25.156-27.165-43.286-51.035-40.38m12.523,22.067c9.222,3.167,15.734,10.598,17.712,20.211,0.74,3.599,0.766,5.764,0.779,65.622,0.008,38.137,0.159,62.916,0.395,64.546,0.699,4.834,2.294,7.023,9.005,12.36,30.123,23.958,30.153,66.091,0.064,89.941-19.372,15.355-48.688,15.787-68.459,1.009-31.162-23.291-31.739-67.431-1.203-92.159,3.828-3.101,5.678-5.367,6.614-8.102,0.359-1.051,0.525-17.082,0.688-66.419l0.215-65.035,0.848-2.998c3.073-10.864,9.973-17.204,21.859-20.086,2.032-0.492,8.691,0.152,11.483,1.11m-14.067,74.259c-3.41,0.618-5.338,2.165-6.302,5.057-0.353,1.062-0.529,11.895-0.691,42.56l-0.217,41.136-0.93,1.89c-1.18,2.397-2.788,3.951-7.254,7.007-13.356,9.142-20.241,22.468-19.288,37.333,2.322,36.225,45.549,52.189,70.526,26.045,17.87-18.704,14.693-47.189-7.086-63.529-8.114-6.088-7.327-0.914-7.587-49.882-0.181-34.151-0.312-41.398-0.774-42.681-0.718-1.994-2.712-3.973-4.583-4.55-1.803-0.557-13.324-0.838-15.814-0.386"/></g></svg>
