<svg xmlns="http://www.w3.org/2000/svg" height="209.26" width="263.87"><g transform="translate(-88.937938,-83.635426)"><path fill-rule="evenodd" fill="#fc9b26" d="m154.39,83.869c-7.38,1.33-15.756,9.866-22.304,22.731-4.547,8.934-4.456,10.621,0.768,14.369,3.36,2.411,4.142,6.161,2.195,10.526-1.576,3.534-2.781,4.247-7.646,4.523-4.544,0.257-5.099,0.619-6.102,3.984-3.68,12.338-2.996,31.256,1.43,39.56,3.09,5.797,6.066,7.254,22.636,11.081,2.849,0.658,6.985,1.642,9.19,2.186,3.975,0.982,10.934,2.459,23.62,5.013,3.617,0.728,8.279,1.692,10.359,2.141,2.08,0.45,6.414,1.282,9.63,1.85s8.104,1.473,10.861,2.011c5.986,1.168,24.909,4.36,38.596,6.51,8.709,1.368,13.906,2.069,35.756,4.825,22.867,2.884,29.462,3.288,33.855,2.074,19.473-5.379,40.12-42.851,34.7-62.975-2.238-8.312-6.209-10.887-22.774-14.772-7.442-1.746-19.235-4.881-26.399-7.019-3.4-1.015-9.039-2.681-12.531-3.702-22.112-6.467-60.375-18.873-77.193-25.028-3.86-1.413-9.198-3.366-11.863-4.34-8.212-3.003-10.105-3.724-23.885-9.091-16.925-6.592-18.961-7.166-22.899-6.457m33.083,21.525c15.196,5.423,15.701,6.339,9.044,16.396-9.67,14.61-15.521,32.544-16.411,50.307-0.524,10.441-0.685,11.159-2.823,12.56-1.638,1.074-8.411,0.04-18.84-2.874-7.962-2.225-9.523-5.616-8.709-18.917,1.126-18.393,7.409-38.245,16.352-51.662,6.501-9.754,8.678-10.345,21.387-5.81m-93.284-1.355c-3.246,0.91-4.416,2.512-4.982,6.822-0.226,1.716-0.308,31.908-0.244,89.473l0.097,86.884,1.002,2c1.634,3.258,2.803,3.681,10.183,3.681,8.032,0,10.04-1.011,11.012-5.543,0.247-1.15,0.373-18.543,0.403-55.543,0.062-77.278,0.258-93.588,1.148-95.283,0.816-1.556,2.25-2.384,5.01-2.894,3.717-0.685,5.157-2.474,6.5-8.073,1.299-5.421,1.036-5.893-4.897-8.788-5.008-2.443-5.636-3.032-7.535-7.069-2.517-5.35-3.442-5.856-10.963-6.002-3.526-0.069-5.676,0.038-6.734,0.335m149.16,20.417c17.26,4.458,19.776,6.644,15.262,13.259-4.604,6.749-6.316,9.535-8.497,13.831-5.787,11.401-8.775,22.231-9.541,34.586-0.55,8.883-0.775,9.69-3.043,10.927-2.98,1.626-20.659-1.385-24.259-4.131-6.78-5.171-1.78-35.912,8.846-54.389,8.034-13.97,11.856-16.505,21.232-14.083m65.369,18.441c13.44,3.361,14.666,5.28,8.409,13.16-9.239,11.634-15.03,26.431-16.021,40.935-0.73,10.685-1.511,11.171-15.053,9.374-14.058-1.866-14.87-2.597-14.87-13.384,0-15.117,6.476-32.795,16.516-45.081,6.362-7.787,8.17-8.217,21.019-5.004"/></g></svg>
