<svg xmlns="http://www.w3.org/2000/svg" height="252.61" width="287.28"><g transform="translate(-55.973393,-57.184823)"><path fill-rule="evenodd" fill="#fc9b26" d="m211.97,57.322c-45.447,2.1-84.8,26.751-106.06,66.435-5.518,10.302-5.588,10.307-26.174,1.826-15.276-6.294-17.233-6.778-20.442-5.055-5.128,2.753-4.991,3.662,5.137,34.114,4.471,13.441,8.314,25.561,8.54,26.932,0.628,3.803,0.212,5.392-7.245,27.687-10.43,31.187-9.827,29.176-9.678,32.249,0.2,4.137,2.015,6.063,5.921,6.283,3.073,0.173,4.727-0.361,18.905-6.107,19.664-7.969,20.138-7.931,25.143,2.027,9.811,19.518,29.784,39.597,50.453,50.72,67.971,36.579,151.71,5.287,178.7-66.779,31.59-84.3-33.64-174.48-123.2-170.34m22.099,12.623c68.709,12.202,110.54,75.109,94.098,141.5-23.648,95.453-150.2,118.35-205.69,37.216-9.229-13.493-10.248-18.559-4.358-21.669,1.665-0.878,60.711-24.582,85.378-34.274,7.205-2.831,10.129-5.334,10.129-8.669,0-4.241-2.275-6.002-13.376-10.36-5.606-2.2-21.924-8.684-63.434-25.204-25.857-10.29-25.876-10.31-20.017-20.887,17.623-31.813,50.132-53.733,85.961-57.963,1.824-0.215,3.813-0.458,4.42-0.54,3.699-0.497,22.671,0.106,26.888,0.855m-155.82,67.628c1.189,0.309,5.906,2.066,10.483,3.904,4.576,1.838,26.221,10.517,48.099,19.286,55.127,22.096,51.382,20.416,51.382,23.043,0,3.001,2.046,2.102-67.404,29.612-9.014,3.571-20.451,8.137-25.414,10.148-17.957,7.273-20.168,7.903-21.927,6.25-1.883-1.769-1.866-1.844,5.392-23.93,7.987-24.305,8.051-19.738-0.646-46.04-2.913-8.812-5.393-16.934-5.511-18.048-0.449-4.253,1.051-5.396,5.546-4.225"/></g></svg>
